<?xml version="1.0" encoding="UTF-8"?>
<svg id="_Слой_1" data-name="Слой 1" xmlns="http://www.w3.org/2000/svg" xmlns:xlink="http://www.w3.org/1999/xlink" viewBox="0 0 141.73 141.73">
  <defs>
    <style>
      .cls-1 {
        fill: #1d5894;
      }

      .cls-2 {
        fill: url(#Degradado_sin_nombre_86-2);
      }

      .cls-3 {
        fill: url(#Degradado_sin_nombre_86);
      }
    </style>
    <linearGradient id="Degradado_sin_nombre_86" data-name="Degradado sin nombre 86" x1="22.42" y1="60.31" x2="42.28" y2="60.31" gradientUnits="userSpaceOnUse">
      <stop offset="0" stop-color="#bf1b38"/>
      <stop offset=".49" stop-color="#e6314f"/>
      <stop offset=".99" stop-color="#bf1d37"/>
    </linearGradient>
    <linearGradient id="Degradado_sin_nombre_86-2" data-name="Degradado sin nombre 86" x1="44.74" x2="61.79" xlink:href="#Degradado_sin_nombre_86"/>
  </defs>
  <g>
    <path class="cls-1" d="M22.5,74.79h6.43c2.35,0,4.09.53,5.24,1.59,1.15,1.06,1.72,2.5,1.72,4.3s-.57,3.27-1.72,4.33c-1.15,1.06-2.89,1.59-5.24,1.59h-2.81v5.9h-3.62v-17.72ZM28.93,83.57c1.21,0,2.08-.24,2.58-.72.51-.48.76-1.2.76-2.16s-.25-1.68-.76-2.16c-.51-.48-1.37-.72-2.58-.72h-2.81v5.77h2.81Z"/>
    <path class="cls-1" d="M44.98,92.73c-2.18,0-3.89-.68-5.15-2.04-1.26-1.36-1.89-3.45-1.89-6.26v-2.02c0-2.58.63-4.53,1.89-5.86,1.26-1.32,2.97-1.99,5.15-1.99s3.89.66,5.15,1.99c1.26,1.32,1.89,3.28,1.89,5.86v2.02c0,2.82-.63,4.91-1.89,6.26-1.26,1.36-2.97,2.04-5.15,2.04ZM44.98,89.62c.54,0,1.02-.08,1.44-.25.42-.17.78-.46,1.06-.86.29-.41.51-.94.67-1.61.16-.67.24-1.49.24-2.47v-2.02c0-1.7-.3-2.92-.91-3.64-.61-.73-1.44-1.09-2.51-1.09s-1.9.36-2.51,1.09c-.61.73-.91,1.94-.91,3.64v2.02c0,.98.08,1.8.24,2.47.16.67.38,1.2.67,1.61.29.4.65.69,1.08.86.43.17.91.25,1.43.25Z"/>
    <path class="cls-1" d="M58.63,92.22c-.87-.34-1.61-.85-2.21-1.54-.61-.69-1.08-1.56-1.4-2.59-.33-1.04-.49-2.27-.49-3.68v-2.02c0-2.56.63-4.51,1.89-5.83,1.26-1.32,2.97-1.99,5.15-1.99s3.69.52,4.78,1.57c1.1,1.05,1.75,2.46,1.95,4.25h-3.62c-.15-.86-.46-1.53-.94-2-.47-.47-1.2-.71-2.18-.71-1.06,0-1.9.36-2.51,1.08-.61.72-.91,1.93-.91,3.63v2.02c0,.98.08,1.8.24,2.47.16.67.38,1.2.67,1.61.29.41.65.7,1.08.87.43.18.91.27,1.43.27,1.01,0,1.74-.24,2.18-.72.44-.48.75-1.19.94-2.11h3.62c-.22,1.89-.88,3.35-1.97,4.39-1.1,1.04-2.68,1.56-4.76,1.56-1.08,0-2.05-.17-2.92-.51Z"/>
    <path class="cls-1" d="M74.2,92.22c-.87-.34-1.61-.85-2.21-1.54-.61-.69-1.08-1.56-1.4-2.59-.33-1.04-.49-2.27-.49-3.68v-2.02c0-2.56.63-4.51,1.89-5.83,1.26-1.32,2.97-1.99,5.15-1.99s3.69.52,4.78,1.57c1.1,1.05,1.75,2.46,1.95,4.25h-3.62c-.15-.86-.46-1.53-.94-2-.47-.47-1.2-.71-2.18-.71-1.06,0-1.9.36-2.51,1.08-.61.72-.91,1.93-.91,3.63v2.02c0,.98.08,1.8.24,2.47.16.67.38,1.2.67,1.61.29.41.65.7,1.08.87.43.18.91.27,1.43.27,1.01,0,1.74-.24,2.18-.72.44-.48.75-1.19.94-2.11h3.62c-.22,1.89-.88,3.35-1.97,4.39-1.1,1.04-2.68,1.56-4.76,1.56-1.08,0-2.05-.17-2.92-.51Z"/>
    <path class="cls-1" d="M86.54,74.79h3.62v11.9l6.78-11.9h3.67v17.72h-3.62v-11.9l-6.86,11.9h-3.59v-17.72Z"/>
    <path class="cls-1" d="M104.38,74.79h3.62v11.9l6.78-11.9h3.67v17.72h-3.62v-11.9l-6.86,11.9h-3.59v-17.72Z"/>
  </g>
  <g>
    <path class="cls-3" d="M30,49.38h4.68l7.59,21.86h-4.78l-1.47-4.34h-7.49l-1.5,4.34h-4.62l7.59-21.86ZM34.78,63.15l-2.5-8.21-2.53,8.21h5.03Z"/>
    <path class="cls-2" d="M44.74,49.38h4.47v8.74h8.12v-8.74h4.47v21.86h-4.47v-9.37h-8.12v9.37h-4.47v-21.86Z"/>
    <path class="cls-1" d="M66.45,49.38h8.18c1.23,0,2.32.12,3.28.37.96.25,1.77.62,2.44,1.12.67.5,1.18,1.11,1.53,1.84.35.73.53,1.56.53,2.5,0,1.08-.27,2.01-.8,2.78-.53.77-1.2,1.38-2.01,1.84,1.08.42,1.93,1.03,2.55,1.83.61.8.92,1.92.92,3.36,0,.87-.16,1.69-.47,2.45-.31.76-.8,1.42-1.47,1.97-.67.55-1.51.99-2.55,1.31-1.03.32-2.27.48-3.73.48h-8.4v-21.86ZM74.63,58.24c1.14,0,1.98-.23,2.51-.7s.8-1.08.8-1.83c0-.81-.26-1.45-.77-1.92-.51-.47-1.36-.7-2.55-.7h-3.72v5.15h3.72ZM74.63,67.52c1.46,0,2.48-.24,3.08-.73.59-.49.89-1.2.89-2.14s-.29-1.68-.86-2.17c-.57-.49-1.61-.73-3.11-.73h-3.72v5.78h3.72Z"/>
    <path class="cls-1" d="M87.43,67.77c1.33,0,2.27-.14,2.83-.41.55-.27.91-.62,1.08-1.06l.22-.53-7.78-16.39h4.78l5.06,11.46,4.43-11.46h4.65l-6.96,16.93c-.42,1.04-.85,1.9-1.3,2.58-.45.68-.98,1.21-1.61,1.59-.62.39-1.37.66-2.23.81-.86.16-1.92.23-3.17.23v-3.75Z"/>
    <path class="cls-1" d="M105.19,69.74c-1.38-1.19-2.21-2.82-2.48-4.9h4.47c.17.87.55,1.57,1.16,2.08.6.51,1.48.77,2.62.77,1.44,0,2.45-.25,3.03-.77.58-.51.87-1.2.87-2.08,0-.96-.29-1.69-.87-2.2-.58-.51-1.59-.77-3.03-.77h-2.84v-3.75h2.84c1.08,0,1.89-.24,2.42-.72.53-.48.8-1.09.8-1.84,0-.83-.27-1.49-.8-1.98-.53-.49-1.34-.73-2.42-.73s-1.89.24-2.5.73c-.6.49-.93,1.15-.97,1.98h-4.25c.08-.94.32-1.81.7-2.61.38-.8.91-1.49,1.56-2.08.66-.58,1.44-1.04,2.36-1.37.92-.33,1.95-.5,3.09-.5,1.27,0,2.38.16,3.34.47.96.31,1.76.74,2.4,1.28.65.54,1.13,1.19,1.45,1.94.32.75.48,1.56.48,2.44,0,1.06-.27,1.98-.8,2.75-.53.77-1.26,1.38-2.2,1.84,1.12.42,2.02,1.03,2.69,1.84.67.81,1,1.97,1,3.47,0,.96-.17,1.84-.5,2.64-.33.8-.84,1.49-1.53,2.06-.69.57-1.56,1.02-2.61,1.33-1.05.31-2.3.47-3.73.47-2.46,0-4.38-.59-5.76-1.78Z"/>
  </g>
</svg>